<?xml version="1.0" ?><svg data-name="Layer 1" id="Layer_1" viewBox="0 0 128 128" xmlns="http://www.w3.org/2000/svg"><defs><style>.cls-1{fill:#b3e2e8;}.cls-12,.cls-15,.cls-2,.cls-5,.cls-9{fill:none;}.cls-2{stroke:#fff;stroke-linecap:square;stroke-width:2px;}.cls-10,.cls-12,.cls-15,.cls-2,.cls-5,.cls-9{stroke-miterlimit:10;}.cls-3{fill:#fff;}.cls-4{fill:#7baeb2;}.cls-5{stroke:#7baeb2;}.cls-5,.cls-9{stroke-linecap:round;}.cls-10,.cls-12,.cls-15,.cls-5,.cls-9{stroke-width:4px;}.cls-6{fill:#ffae00;}.cls-7{fill:#99806d;}.cls-8{fill:#d1b6a1;}.cls-12,.cls-9{stroke:#96745a;}.cls-10{fill:#7c604d;stroke:#7c604d;}.cls-11{fill:#ae937c;}.cls-13{fill:#f05b00;}.cls-13,.cls-16{opacity:0.8;}.cls-14{fill:#fff5ee;opacity:0.48;}.cls-15{stroke:#953600;}.cls-16{fill:#ffdec7;}.cls-17{fill:#edab37;}.cls-18{fill:#dfeff2;opacity:0.7;}</style></defs><title/><circle class="cls-1" cx="64" cy="66" r="60"/><path class="cls-1" d="M46,37a9.94,9.94,0,0,0-4.29,1A16,16,0,0,0,10,41c0,.09,0,.18,0,.26A8,8,0,1,0,8,57H46a10,10,0,0,0,0-20Z"/><path class="cls-1" d="M117,17a9.94,9.94,0,0,0-4.29,1A16,16,0,0,0,81,21c0,.09,0,.18,0,.26A8,8,0,1,0,79,37h38a10,10,0,0,0,0-20Z"/><line class="cls-2" x1="14" x2="24" y1="69" y2="69"/><line class="cls-2" x1="19" x2="19" y1="74" y2="64"/><circle class="cls-2" cx="36" cy="13" r="5"/><path class="cls-2" d="M105.12,89.88A3,3,0,0,0,100,92h0a3,3,0,0,0-5.12-2.12A2.86,2.86,0,0,0,95,94l5,6,5-6A2.86,2.86,0,0,0,105.12,89.88Z"/><path class="cls-3" d="M117,12a9.94,9.94,0,0,0-4.29,1A16,16,0,0,0,81,16c0,.09,0,.18,0,.26A8,8,0,1,0,79,32h38a10,10,0,0,0,0-20Z"/><path class="cls-3" d="M46,32a9.94,9.94,0,0,0-4.29,1A16,16,0,0,0,10,36c0,.09,0,.18,0,.26A8,8,0,1,0,8,52H46a10,10,0,0,0,0-20Z"/><path class="cls-4" d="M94.81,106.34H88.28a4.75,4.75,0,0,0,1.57-9.23l0-.06.13-.21.1-.17.11-.23.08-.18.09-.25.06-.18c0-.09,0-.18.07-.27s0-.11,0-.17,0-.2,0-.31,0-.1,0-.15,0-.31,0-.47a4.74,4.74,0,0,0-.05-.68l0-.15a4.71,4.71,0,0,0-.15-.63l0-.09a4.72,4.72,0,0,0-.22-.54l-.05-.11a4.75,4.75,0,0,0-.33-.54l-.08-.11a4.78,4.78,0,0,0-.38-.45l0-.05a4.79,4.79,0,0,0-.47-.42l-.12-.09a4.75,4.75,0,0,0-.54-.34l-.05,0a4.73,4.73,0,0,0-.55-.24l-.07,0a4.74,4.74,0,0,0-2.38-7.12,4.74,4.74,0,0,0-2.37-7.12,4.75,4.75,0,0,0-3.94-7.4h0a4.74,4.74,0,0,0-4.11-7.12h0a4.74,4.74,0,0,0-4.11-7.12A4.76,4.76,0,0,0,66,49.35a8.63,8.63,0,0,0-16,0,4.76,4.76,0,0,0-4.49,4.74,4.74,4.74,0,0,0-4.11,7.13h0a4.74,4.74,0,0,0-4.11,7.13h0a4.75,4.75,0,0,0-3.94,7.4,4.74,4.74,0,0,0-2.38,7.13A4.74,4.74,0,0,0,28.53,90a4.74,4.74,0,0,0-2.37,7.13,4.75,4.75,0,0,0,1.57,9.23H21.19a1.19,1.19,0,0,0,0,2.38h2.38v10.09a1.19,1.19,0,0,0,2.38,0H90.06a1.19,1.19,0,0,0,2.38,0V108.72h2.38a1.19,1.19,0,0,0,0-2.37Z"/><line class="cls-5" x1="99" x2="17" y1="119" y2="119"/><line class="cls-5" x1="119" x2="110" y1="119" y2="119"/><path class="cls-6" d="M111,44c-.45-1.58-3.91-13.75-13-16C86.7,25.2,81.62,41.43,58,51c-14.53,5.89-25,4.76-26,10-.9,4.63,7.05,6.54,14,19,4,7.11,3.7,10.65,5.83,13.72A93.15,93.15,0,0,1,64,77,90.57,90.57,0,0,1,77.22,95.72c1.52-2.08,1-4.1,4.78-8.72a40.86,40.86,0,0,1,11-9c3-1.78,4.44-2.18,6-3C107.15,70.7,114.72,57.06,111,44Z"/><rect class="cls-7" height="16" transform="translate(18.31 77.29) rotate(-45)" width="12.46" x="96.23" y="8.54"/><path class="cls-8" d="M103.2,4.48,98.05,9.64a7,7,0,0,0,9.9,0l.2-.2Z"/><polyline class="cls-9" points="116.52 13.79 103.71 26.61 92.39 15.29 105.2 2.48"/><rect class="cls-10" height="64" transform="translate(54.08 -37.74) rotate(45)" width="32" x="56.59" y="14.41"/><rect class="cls-11" height="8" rx="4" ry="4" transform="translate(63.45 -15.11) rotate(45)" width="44" x="27.97" y="65.03"/><path class="cls-8" d="M40.07,53.48a4,4,0,0,0-5.66,5.66h0a8,8,0,0,0,11.31,0Z"/><rect class="cls-12" height="8" rx="4" ry="4" transform="translate(63.45 -15.11) rotate(45)" width="44" x="27.97" y="65.03"/><rect class="cls-11" height="8" rx="4" ry="4" transform="translate(58.76 -26.43) rotate(45)" width="56" x="33.28" y="53.72"/><path class="cls-8" d="M47.14,37.92a4,4,0,1,0-5.66,5.66L43.6,45.7a8,8,0,0,0,11.31,0Z"/><rect class="cls-12" height="8" rx="4" ry="4" transform="translate(58.76 -26.43) rotate(45)" width="56" x="33.28" y="53.72"/><rect class="cls-11" height="8" rx="4" ry="4" transform="translate(44.7 -60.37) rotate(45)" width="44" x="73.22" y="19.78"/><path class="cls-8" d="M85.32,8.22a4,4,0,0,0-5.66,5.66L90.27,24.49a8,8,0,0,0,11.31,0Z"/><rect class="cls-12" height="8" rx="4" ry="4" transform="translate(44.7 -60.37) rotate(45)" width="44" x="73.22" y="19.78"/><rect class="cls-11" height="8" rx="4" ry="4" transform="translate(49.39 -49.05) rotate(45)" width="56" x="55.91" y="31.09"/><path class="cls-8" d="M69.77,15.29a4,4,0,0,0-5.66,5.66l4.95,4.95a8,8,0,0,0,11.31,0Z"/><rect class="cls-12" height="8" rx="4" ry="4" transform="translate(49.39 -49.05) rotate(45)" width="56" x="55.91" y="31.09"/><rect class="cls-11" height="8" rx="4" ry="4" transform="translate(54.08 -37.74) rotate(45)" width="68" x="38.59" y="42.41"/><path class="cls-8" d="M54.21,22.36A4,4,0,0,0,48.55,28l5.66,5.66a8,8,0,0,0,11.31,0Z"/><rect class="cls-12" height="8" rx="4" ry="4" transform="translate(54.08 -37.74) rotate(45)" width="68" x="38.59" y="42.41"/><path class="cls-13" d="M81,109c0-.54,0-1.1-.08-1.65l0-.19C79.55,93.47,64,77,64,77S48.45,93.47,47.1,107.16l0,.19c0,.55-.08,1.11-.08,1.65a13.29,13.29,0,0,0,.07,1.34,17,17,0,0,0,33.86,0A13.29,13.29,0,0,0,81,109Z"/><path class="cls-14" d="M48.23,115.28A4.43,4.43,0,0,1,49,115c2.66-.67,3.7-3.77,4.1-5.78v-.06c.05-.52.14-1,.23-1.56v-.12h0c1.78-10.07,10.38-21.19,14.48-26C65.61,78.7,64,77,64,77S48.45,93.47,47.1,107.16l0,.19c0,.55-.08,1.11-.08,1.65a13.29,13.29,0,0,0,.07,1.34A16.87,16.87,0,0,0,48.23,115.28Z"/><path class="cls-6" d="M80.9,107.16c-.06-.59-.15-1.19-.26-1.79a17,17,0,0,1-33.27,0c-.11.6-.2,1.2-.26,1.79l0,.19c0,.55-.08,1.11-.08,1.65a13.29,13.29,0,0,0,.07,1.34,17,17,0,0,0,33.86,0A13.29,13.29,0,0,0,81,109c0-.54,0-1.1-.08-1.65Z"/><path class="cls-15" d="M81,109c0-.54,0-1.1-.08-1.65l0-.19C79.55,93.47,64,77,64,77S48.45,93.47,47.1,107.16l0,.19c0,.55-.08,1.11-.08,1.65a13.29,13.29,0,0,0,.07,1.34,17,17,0,0,0,33.86,0A13.29,13.29,0,0,0,81,109Z"/><circle class="cls-16" cx="62" cy="105" r="6"/><rect height="14" rx="2" ry="2" width="4" x="64" y="42"/><rect class="cls-17" height="2" width="4" x="64" y="51"/><rect class="cls-17" height="2" width="4" x="64" y="47"/><path class="cls-18" d="M77.6,47.44a4,4,0,1,1-5.66,5.66c-1.56-1.56-6.51-6.22-4.95-7.78S76,45.88,77.6,47.44Z"/><path class="cls-18" d="M54.4,47.44a4,4,0,1,0,5.66,5.66c1.56-1.56,6.51-6.22,4.95-7.78S56,45.88,54.4,47.44Z"/><rect height="14" rx="2" ry="2" transform="translate(-14.87 98.11) rotate(-45)" width="4" x="109" y="60"/><rect class="cls-17" height="2" transform="translate(-15.74 100.23) rotate(-45)" width="4" x="111.12" y="68.12"/><rect class="cls-17" height="2" transform="translate(-14.57 97.41) rotate(-45)" width="4" x="108.29" y="65.29"/><path class="cls-18" d="M118.09,57.7a4,4,0,0,1,0,8c-2.21,0-9,.21-9-2S115.89,57.7,118.09,57.7Z"/><path class="cls-18" d="M101.7,74.09a4,4,0,0,0,8,0c0-2.21.21-9-2-9S101.7,71.89,101.7,74.09Z"/><rect height="14" rx="2" ry="2" transform="translate(75.2 10.44) rotate(45)" width="4" x="23" y="89"/><rect class="cls-17" height="2" transform="translate(76.08 12.56) rotate(45)" width="4" x="20.88" y="97.12"/><rect class="cls-17" height="2" transform="translate(74.91 9.73) rotate(45)" width="4" x="23.71" y="94.29"/><path class="cls-18" d="M34.3,103.09a4,4,0,0,1-8,0c0-2.21-.21-9,2-9S34.3,100.89,34.3,103.09Z"/><path class="cls-18" d="M17.91,86.7a4,4,0,1,0,0,8c2.21,0,9,.21,9-2S20.11,86.7,17.91,86.7Z"/></svg>